<svg width="21" height="21" viewBox="0 0 21 21" fill="none" xmlns="http://www.w3.org/2000/svg">
<path d="M10.667 20.333C5.06054 20.333 0.5 15.7724 0.5 10.1665C0.5 4.56055 5.06054 0 10.667 0C16.2734 0 20.834 4.56054 20.834 10.1665C20.834 15.7725 16.2734 20.333 10.667 20.333ZM10.667 2C6.16406 2 2.5 5.66357 2.5 10.1665C2.5 14.6694 6.16406 18.333 10.667 18.333C15.1699 18.333 18.834 14.6694 18.834 10.1665C18.834 5.66357 15.1699 2 10.667 2Z" fill="#4DB849"/>
<path d="M10.667 14.833C10.1143 14.833 9.66699 14.3853 9.66699 13.833V10.1665C9.66699 9.61425 10.1143 9.1665 10.667 9.1665C11.2197 9.1665 11.667 9.61425 11.667 10.1665V13.833C11.667 14.3853 11.2197 14.833 10.667 14.833Z" fill="#4DB849"/>
<path d="M10.6768 7.5C10.124 7.5 9.67188 7.05225 9.67188 6.5C9.67188 5.94775 10.1143 5.5 10.667 5.5H10.6768C11.2295 5.5 11.6768 5.94775 11.6768 6.5C11.6768 7.05225 11.2295 7.5 10.6768 7.5Z" fill="#4DB849"/>
</svg>
