<svg width="25" height="24" viewBox="0 0 25 24" fill="none" xmlns="http://www.w3.org/2000/svg">
<path d="M12.667 22.333C7.06054 22.333 2.5 17.7724 2.5 12.1665C2.5 6.56055 7.06054 2 12.667 2C18.2734 2 22.834 6.56054 22.834 12.1665C22.834 17.7725 18.2734 22.333 12.667 22.333ZM12.667 4C8.16406 4 4.5 7.66357 4.5 12.1665C4.5 16.6694 8.16406 20.333 12.667 20.333C17.1699 20.333 20.834 16.6694 20.834 12.1665C20.834 7.66357 17.1699 4 12.667 4Z" fill="#FF6600"/>
<path d="M12.667 16.833C12.1143 16.833 11.667 16.3853 11.667 15.833V12.1665C11.667 11.6143 12.1143 11.1665 12.667 11.1665C13.2197 11.1665 13.667 11.6143 13.667 12.1665V15.833C13.667 16.3853 13.2197 16.833 12.667 16.833Z" fill="#FF6600"/>
<path d="M12.6768 9.5C12.124 9.5 11.6719 9.05225 11.6719 8.5C11.6719 7.94775 12.1143 7.5 12.667 7.5H12.6768C13.2295 7.5 13.6768 7.94775 13.6768 8.5C13.6768 9.05225 13.2295 9.5 12.6768 9.5Z" fill="#FF6600"/>
</svg>
