<svg width="24" height="24" viewBox="0 0 24 24" fill="none" xmlns="http://www.w3.org/2000/svg">
<path d="M12.7072 21.1923C12.5263 21.3732 12.2763 21.485 12.0001 21.485C11.4476 21.485 11.0002 21.0376 11.0002 20.4852V3.5146C11.0002 2.96216 11.4477 2.5147 12.0001 2.51471C12.5525 2.51471 13 2.96217 13 3.5146L13 20.4852C13 20.7614 12.8881 21.0113 12.7072 21.1923Z" fill="white"/>
<path d="M21.1925 12.707C21.0115 12.8879 20.7616 12.9998 20.4854 12.9998L3.5148 12.9998C2.96237 12.9998 2.5149 12.5523 2.51491 11.9999C2.51492 11.4474 2.96237 11 3.5148 11L20.4854 11C21.0378 11 21.4853 11.4474 21.4853 11.9999C21.4853 12.2761 21.3734 12.5261 21.1925 12.707Z" fill="white"/>
</svg>
